<svg width="1400" height="800" viewBox="0 0 1400 800" xmlns="http://www.w3.org/2000/svg" role="img" aria-labelledby="title desc">
  <title id="title">Illustrated exterior of Luau Manor with front sign</title>
  <desc id="desc">A stylized illustration of a mid-rise apartment building with balconies and a Luau Manor entrance sign in the foreground.</desc>
  <defs>
    <linearGradient id="sky" x1="0" x2="0" y1="0" y2="1">
      <stop offset="0%" stop-color="#f5f9ff" />
      <stop offset="100%" stop-color="#d8e7ff" />
    </linearGradient>
    <linearGradient id="grass" x1="0" x2="0" y1="0" y2="1">
      <stop offset="0%" stop-color="#a7d08c" />
      <stop offset="100%" stop-color="#6b8b63" />
    </linearGradient>
    <linearGradient id="sign" x1="0" x2="0" y1="0" y2="1">
      <stop offset="0%" stop-color="#5c4033" />
      <stop offset="100%" stop-color="#3d2a23" />
    </linearGradient>
  </defs>

  <rect width="1400" height="520" fill="url(#sky)" />
  <rect y="520" width="1400" height="280" fill="url(#grass)" />

  <g transform="translate(140 120)">
    <rect x="0" y="40" width="950" height="480" rx="6" fill="#eadfcf" stroke="#4a4137" stroke-width="4" />
    <g stroke="#c9bca8" stroke-width="3">
      <line x1="0" y1="40" x2="950" y2="40" />
      <line x1="0" y1="120" x2="950" y2="120" />
      <line x1="0" y1="200" x2="950" y2="200" />
      <line x1="0" y1="280" x2="950" y2="280" />
      <line x1="0" y1="360" x2="950" y2="360" />
      <line x1="0" y1="440" x2="950" y2="440" />
      <line x1="0" y1="520" x2="950" y2="520" />
    </g>
    <g stroke="#b4a99a" stroke-width="3">
      <line x1="130" y1="40" x2="130" y2="520" />
      <line x1="250" y1="40" x2="250" y2="520" />
      <line x1="370" y1="40" x2="370" y2="520" />
      <line x1="490" y1="40" x2="490" y2="520" />
      <line x1="610" y1="40" x2="610" y2="520" />
      <line x1="730" y1="40" x2="730" y2="520" />
      <line x1="850" y1="40" x2="850" y2="520" />
    </g>
    <g fill="#7b8797" stroke="#4f5966" stroke-width="4">
      <rect x="85" y="76" width="80" height="44" rx="4" />
      <rect x="205" y="76" width="80" height="44" rx="4" />
      <rect x="325" y="76" width="80" height="44" rx="4" />
      <rect x="445" y="76" width="80" height="44" rx="4" />
      <rect x="565" y="76" width="80" height="44" rx="4" />
      <rect x="685" y="76" width="80" height="44" rx="4" />
      <rect x="805" y="76" width="80" height="44" rx="4" />

      <rect x="85" y="156" width="80" height="44" rx="4" />
      <rect x="205" y="156" width="80" height="44" rx="4" />
      <rect x="325" y="156" width="80" height="44" rx="4" />
      <rect x="445" y="156" width="80" height="44" rx="4" />
      <rect x="565" y="156" width="80" height="44" rx="4" />
      <rect x="685" y="156" width="80" height="44" rx="4" />
      <rect x="805" y="156" width="80" height="44" rx="4" />

      <rect x="85" y="236" width="80" height="44" rx="4" />
      <rect x="205" y="236" width="80" height="44" rx="4" />
      <rect x="325" y="236" width="80" height="44" rx="4" />
      <rect x="445" y="236" width="80" height="44" rx="4" />
      <rect x="565" y="236" width="80" height="44" rx="4" />
      <rect x="685" y="236" width="80" height="44" rx="4" />
      <rect x="805" y="236" width="80" height="44" rx="4" />

      <rect x="85" y="316" width="80" height="44" rx="4" />
      <rect x="205" y="316" width="80" height="44" rx="4" />
      <rect x="325" y="316" width="80" height="44" rx="4" />
      <rect x="445" y="316" width="80" height="44" rx="4" />
      <rect x="565" y="316" width="80" height="44" rx="4" />
      <rect x="685" y="316" width="80" height="44" rx="4" />
      <rect x="805" y="316" width="80" height="44" rx="4" />

      <rect x="85" y="396" width="80" height="44" rx="4" />
      <rect x="205" y="396" width="80" height="44" rx="4" />
      <rect x="325" y="396" width="80" height="44" rx="4" />
      <rect x="445" y="396" width="80" height="44" rx="4" />
      <rect x="565" y="396" width="80" height="44" rx="4" />
      <rect x="685" y="396" width="80" height="44" rx="4" />
      <rect x="805" y="396" width="80" height="44" rx="4" />
    </g>

    <g>
      <rect x="115" y="360" width="210" height="140" fill="#443733" />
      <rect x="100" y="320" width="240" height="50" fill="#d5c8b5" stroke="#6b5b4d" stroke-width="4" />
      <rect x="215" y="400" width="30" height="100" fill="#f6f1e8" />
    </g>
  </g>

  <path d="M480 600 C540 620 620 780 660 800 L820 800 C860 780 900 650 1000 600 Z" fill="#c3bbb3" opacity="0.8" />

  <g transform="translate(950 470)">
    <rect x="-12" y="-12" width="380" height="210" rx="14" fill="#f0e6da" stroke="#ae9c8a" stroke-width="4" />
    <rect x="0" y="0" width="356" height="186" rx="12" fill="url(#sign)" stroke="#f5eadc" stroke-width="10" />
    <text x="178" y="82" font-family="'Trebuchet MS', 'Segoe UI', sans-serif" font-size="48" fill="#fff" font-weight="bold" text-anchor="middle">Luau Manor</text>
    <text x="178" y="132" font-family="'Trebuchet MS', 'Segoe UI', sans-serif" font-size="22" fill="#f1e5d9" text-anchor="middle">Wheeling Housing Authority</text>
  </g>

  <circle cx="260" cy="150" r="60" fill="#fff" opacity="0.7" />
  <circle cx="420" cy="130" r="80" fill="#fff" opacity="0.6" />
  <circle cx="760" cy="150" r="70" fill="#fff" opacity="0.55" />
</svg>
